<?xml version="1.0" encoding="utf-8"?>
<!-- Generator: Adobe Illustrator 21.0.0, SVG Export Plug-In . SVG Version: 6.00 Build 0)  -->
<svg version="1.1" id="Capa_1" xmlns="http://www.w3.org/2000/svg" xmlns:xlink="http://www.w3.org/1999/xlink" x="0px" y="0px"
	 viewBox="0 0 50 50" style="enable-background:new 0 0 50 50;" xml:space="preserve">
<style type="text/css">
	.st0{fill:#B4BF2A;}
</style>
<path class="st0" d="M41.9,36.5h-0.7V18.8c0-0.1-0.1-0.4-0.3-0.4l-15.5-4.1c-0.1,0-0.3-0.1-0.3-0.4v-3.3c0-1.5-3.7-2.9-8.1-2.9
	S8.8,9,8.8,10.5v26H8.1c-0.1,0-0.4,0.1-0.4,0.4l0,0v1.2c0,0.1,0.1,0.4,0.4,0.4l0,0l16.3,3.9l17.5-4c0.1,0,0.4-0.1,0.4-0.4v-1.2
	C42.2,36.6,42.1,36.5,41.9,36.5z M11.7,32.3c0,0.1-0.1,0.3-0.3,0.4c-0.4,0.1-1,0.3-1.4,0.4c-0.1,0.1-0.4,0-0.4-0.1v-0.1v-1.5
	c0-0.1,0.1-0.3,0.1-0.3c0.4-0.3,1-0.4,1.4-0.6c0.1,0,0.4,0,0.4,0.3c0,0,0,0,0,0.1L11.7,32.3z M11.7,28.5c0,0.1-0.1,0.3-0.3,0.4
	c-0.4,0.1-1,0.3-1.4,0.4c-0.1,0.1-0.4,0-0.4-0.1V29v-1.5c0-0.1,0.1-0.3,0.1-0.3c0.4-0.3,1-0.4,1.4-0.6c0.1,0,0.4,0,0.4,0.3
	c0,0,0,0,0,0.1L11.7,28.5z M11.7,24.7c0,0.1-0.1,0.3-0.3,0.4c-0.4,0.1-1,0.3-1.4,0.4c-0.1,0.1-0.4,0-0.4-0.1v-0.1v-1.5
	c0-0.1,0.1-0.3,0.1-0.3c0.4-0.3,1-0.4,1.4-0.6c0.1,0,0.4,0,0.4,0.3c0,0,0,0,0,0.1L11.7,24.7z M11.7,21c0,0.1-0.1,0.3-0.3,0.4
	c-0.4,0.1-1,0.3-1.4,0.4c-0.1,0.1-0.4,0-0.4-0.1v-0.1V20c0-0.1,0.1-0.3,0.1-0.3c0.4-0.3,1-0.4,1.4-0.6c0.1,0,0.4,0,0.4,0.3
	c0,0,0,0,0,0.1L11.7,21z M11.7,17.1c0,0.1-0.1,0.3-0.3,0.4c-0.4,0.1-1,0.3-1.4,0.4c-0.1,0.1-0.4,0-0.4-0.1v-0.1v-1.5
	c0-0.1,0.1-0.3,0.1-0.3c0.4-0.3,1-0.4,1.4-0.6c0.1,0,0.4,0,0.4,0.3c0,0,0,0,0,0.1L11.7,17.1z M11.7,13.4c0,0.1-0.1,0.3-0.3,0.4
	c-0.4,0.1-1,0.3-1.4,0.4c-0.1,0.1-0.4,0-0.4-0.1V14v-1.5c0-0.1,0.1-0.3,0.1-0.3c0.4-0.3,1-0.4,1.4-0.6c0.1,0,0.4,0,0.4,0.3
	c0,0,0,0,0,0.1L11.7,13.4z M16.5,31.6c0,0.1-0.1,0.4-0.4,0.4c-1.1,0-2.2,0.1-3.3,0.3c-0.1,0-0.4-0.1-0.4-0.3l0,0v-1.7
	c0-0.1,0.1-0.3,0.3-0.4c1.1-0.1,2.2-0.3,3.5-0.4c0.1,0,0.4,0.1,0.4,0.4l0,0V31.6L16.5,31.6z M16.5,27.8c0,0.1-0.1,0.4-0.4,0.4
	c-1.1,0-2.2,0.1-3.3,0.3c-0.1,0-0.4-0.1-0.4-0.3l0,0v-1.7c0-0.1,0.1-0.3,0.3-0.4c1.1-0.1,2.2-0.3,3.5-0.4c0.1,0,0.4,0.1,0.4,0.4l0,0
	V27.8L16.5,27.8z M16.5,24c0,0.1-0.1,0.4-0.4,0.4c-1.1,0-2.2,0.1-3.3,0.3c-0.1,0-0.4-0.1-0.4-0.3l0,0v-1.7c0-0.1,0.1-0.3,0.3-0.4
	c1.1-0.1,2.2-0.3,3.5-0.4c0.1,0,0.4,0.1,0.4,0.4l0,0V24L16.5,24z M16.5,20.3c0,0.1-0.1,0.4-0.4,0.4c-1.1,0-2.2,0.1-3.3,0.3
	c-0.1,0-0.4-0.1-0.4-0.3l0,0v-1.7c0-0.1,0.1-0.3,0.3-0.4c1.1-0.1,2.2-0.3,3.5-0.4c0.1,0,0.4,0.1,0.4,0.4l0,0V20.3L16.5,20.3z
	 M16.5,16.4c0,0.1-0.1,0.4-0.4,0.4c-1.1,0-2.2,0.1-3.3,0.3c-0.1,0-0.4-0.1-0.4-0.3l0,0v-1.7c0-0.1,0.1-0.3,0.3-0.4
	c1.1-0.1,2.2-0.3,3.5-0.4c0.1,0,0.4,0.1,0.4,0.4l0,0V16.4L16.5,16.4z M16.5,12.7c0,0.1-0.1,0.4-0.4,0.4c-1.1,0-2.2,0.1-3.3,0.3
	c-0.1,0-0.4-0.1-0.4-0.3l0,0v-1.7c0-0.1,0.1-0.3,0.3-0.4c1.1-0.1,2.2-0.3,3.5-0.4c0.1,0,0.4,0.1,0.4,0.4l0,0V12.7L16.5,12.7z
	 M22.4,11.7c0-0.1,0.1-0.4,0.4-0.4c0,0,0,0,0.1,0c0.4,0.1,1,0.3,1.4,0.6c0.1,0,0.1,0.1,0.1,0.3v1.5c0,0.1-0.1,0.4-0.4,0.3H24
	c-0.4-0.1-1-0.3-1.4-0.4c-0.1,0-0.3-0.1-0.3-0.4L22.4,11.7L22.4,11.7z M21.5,31.9c0,0.1-0.1,0.4-0.4,0.4l0,0
	C20,32.2,18.9,32,17.7,32c-0.1,0-0.4-0.1-0.4-0.4V30c0-0.1,0.1-0.4,0.4-0.4l0,0c1.1,0,2.3,0.1,3.5,0.4c0.1,0,0.3,0.1,0.3,0.4
	L21.5,31.9L21.5,31.9z M21.5,28.2c0,0.1-0.1,0.4-0.4,0.4l0,0c-1.1-0.1-2.2-0.3-3.3-0.3c-0.1,0-0.4-0.1-0.4-0.4v-1.7
	c0-0.1,0.1-0.4,0.4-0.4l0,0c1.1,0,2.3,0.1,3.5,0.4c0.1,0,0.3,0.1,0.3,0.4C21.5,26.5,21.5,28.2,21.5,28.2z M21.5,24.4
	c0,0.1-0.1,0.4-0.4,0.4l0,0c-1.1-0.1-2.2-0.3-3.3-0.3c-0.1,0-0.4-0.1-0.4-0.4v-1.7c0-0.1,0.1-0.4,0.4-0.4l0,0c1.1,0,2.3,0.1,3.5,0.4
	c0.1,0,0.3,0.1,0.3,0.4C21.5,22.8,21.5,24.4,21.5,24.4z M21.5,20.6c0,0.1-0.1,0.4-0.4,0.4l0,0c-1.1-0.1-2.2-0.3-3.3-0.3
	c-0.1,0-0.4-0.1-0.4-0.4v-1.7c0-0.1,0.1-0.4,0.4-0.4l0,0c1.1,0,2.3,0.1,3.5,0.4c0.1,0,0.3,0.1,0.3,0.4
	C21.5,18.9,21.5,20.6,21.5,20.6z M21.5,16.9c0,0.1-0.1,0.4-0.4,0.4l0,0C20,17.1,18.9,17,17.7,17c-0.1,0-0.4-0.1-0.4-0.4v-1.7
	c0-0.1,0.1-0.4,0.4-0.4l0,0c1.1,0,2.3,0.1,3.5,0.4c0.1,0,0.3,0.1,0.3,0.4C21.5,15.2,21.5,16.9,21.5,16.9z M21.5,13
	c0,0.1-0.1,0.4-0.4,0.4l0,0c-1.1-0.1-2.2-0.3-3.3-0.3c-0.1,0-0.4-0.1-0.4-0.4v-1.7c0-0.1,0.1-0.4,0.4-0.4l0,0c1.1,0,2.3,0.1,3.5,0.4
	c0.1,0,0.3,0.1,0.3,0.4L21.5,13L21.5,13z M22.4,17.1v-1.5c0-0.1,0.1-0.4,0.4-0.4c0,0,0,0,0.1,0c0.4,0.1,1,0.3,1.4,0.6
	c0.1,0,0.1,0.1,0.1,0.3v1.5c0,0.1-0.1,0.4-0.4,0.3H24c-0.4-0.1-1-0.3-1.4-0.4C22.4,17.4,22.4,17.3,22.4,17.1L22.4,17.1z M33.9,36.5
	h-5.4v-3.3c0-0.1,0.1-0.4,0.4-0.4l0,0h4.7c0.1,0,0.4,0.1,0.4,0.4l0,0L33.9,36.5z M39.6,30.2c0,0.1-0.1,0.4-0.4,0.4l0,0H24
	c-0.1,0-0.4-0.1-0.4-0.4l0,0v-1.4c0-0.1,0.1-0.4,0.4-0.4l0,0h15.2c0.1,0,0.4,0.1,0.4,0.4l0,0V30.2z M39.6,26.7
	c0,0.1-0.1,0.4-0.4,0.4l0,0H24c-0.1,0-0.4-0.1-0.4-0.4l0,0v-1.4c0-0.1,0.1-0.4,0.4-0.4l0,0h15.2c0.1,0,0.4,0.1,0.4,0.4l0,0V26.7z
	 M39.6,23.2c0,0.1-0.1,0.4-0.4,0.4l0,0H24c-0.1,0-0.4-0.1-0.4-0.4l0,0v-1.4c0-0.1,0.1-0.4,0.4-0.4l0,0h15.2c0.1,0,0.4,0.1,0.4,0.4
	l0,0V23.2z"/>
</svg>
