<?xml version="1.0" encoding="utf-8"?>
<!-- Generator: Adobe Illustrator 21.0.0, SVG Export Plug-In . SVG Version: 6.00 Build 0)  -->
<svg version="1.1" id="Capa_1" xmlns="http://www.w3.org/2000/svg" xmlns:xlink="http://www.w3.org/1999/xlink" x="0px" y="0px"
	 viewBox="0 0 50 50" style="enable-background:new 0 0 50 50;" xml:space="preserve">
<style type="text/css">
	.st0{fill:#B4BF2A;}
</style>
<g>
	<path class="st0" d="M5.5,17.5v5.2c0,0.6,0.6,1.2,1.2,1.2H8v-7.6H6.7C6.1,16.3,5.5,16.9,5.5,17.5z"/>
	<path class="st0" d="M43.3,16.3h-1.4v7.6h1.4c0.6,0,1.2-0.6,1.2-1.2v-5.3C44.5,16.9,44.1,16.3,43.3,16.3z"/>
	<path class="st0" d="M32.5,6.1h-15c-4.2,0-7.7,3.5-7.7,7.6v22.8c0,1.3,1.2,2.4,2.6,2.4v2.5v0.2c0,1.3,1.2,2.4,2.5,2.3h2.6l0,0
		c1.3,0,2.6-1.2,2.6-2.6v-2.5h10.1v2.5v0.2c0,1.3,1.1,2.4,2.4,2.4h2.5h0.2c1.3,0,2.4-1.2,2.3-2.6v-2.5h0.2c1.3,0,2.4-1.1,2.4-2.4
		V13.7l0,0C40.2,9.5,36.7,6.1,32.5,6.1z M21.1,8.6h8l1.2,2.5H20.1L21.1,8.6z M17.7,35.3c0,0.6-0.5,1.1-1.1,1.1c0,0,0,0-0.1,0h-3
		c-0.6,0-1.1-0.3-1.2-0.9v-0.2v-2.1c0-0.6,0.5-1,1-1h0.2l0,0h3c0.6,0,1,0.3,1.2,0.9v0.2V35.3z M12.4,29V13.7h25.2V29H12.4z
		 M37.8,33.2v2.1c0,0.6-0.4,1-0.9,1c0,0,0,0-0.2,0h-3.1c-0.6,0-1.2-0.4-1.2-1v-2.1c0-0.6,0.6-1,1.2-1l0,0h3.1
		C37.3,32.2,37.8,32.6,37.8,33.2L37.8,33.2z"/>
</g>
</svg>
