<?xml version="1.0" encoding="utf-8"?>
<!-- Generator: Adobe Illustrator 21.0.0, SVG Export Plug-In . SVG Version: 6.00 Build 0)  -->
<svg version="1.1" id="Capa_1" xmlns="http://www.w3.org/2000/svg" xmlns:xlink="http://www.w3.org/1999/xlink" x="0px" y="0px"
	 viewBox="0 0 50 50" style="enable-background:new 0 0 50 50;" xml:space="preserve">
<style type="text/css">
	.st0{fill:#2E2E2E;}
</style>
<path class="st0" d="M17.5,32.3h-4c-0.3,0-0.5,0.3-0.5,0.5l0,0c0.1,2.1,4.1,5.6,4.9,6.4c0.1,0.1,0.1,0.3,0.1,0.4v0.4
	c0,1.4,1.1,2.5,2.5,2.5l0,0h8.9c1.4,0,2.5-1.1,2.5-2.5v-0.4c0-0.1,0.1-0.3,0.1-0.4c1-0.8,4.8-4.5,4.9-6.4c0-0.3-0.3-0.5-0.5-0.7l0,0
	h-4c-0.3,0-0.5-0.3-0.5-0.5l0,0v-2.7c0-0.1,0.1-0.3,0.1-0.4c1-0.8,4.8-4.5,4.9-6.4c0-0.3-0.3-0.5-0.5-0.7l0,0h-4
	c-0.3,0-0.5-0.3-0.5-0.5l0,0V18c0-0.1,0.1-0.3,0.1-0.4c1-0.8,4.8-4.5,4.9-6.4c0-0.3-0.3-0.5-0.5-0.7l0,0h-4c-0.3,0-0.5-0.3-0.5-0.5
	l0,0l0,0c0-1.4-1.1-2.5-2.5-2.5h-8.9c-1.4,0-2.5,1.1-2.5,2.5l0,0c0,0.3-0.3,0.5-0.5,0.5l0,0h-4c-0.3,0-0.5,0.3-0.5,0.5l0,0
	c0.1,2.1,4.1,5.6,4.9,6.4c0.1,0.1,0.1,0.3,0.1,0.4v2.7c0,0.3-0.3,0.5-0.5,0.5l0,0h-4c-0.3,0-0.5,0.3-0.5,0.5l0,0
	c0.1,2.1,4.1,5.6,4.9,6.4c0.1,0.1,0.1,0.3,0.1,0.4v2.7C18.1,32,17.8,32.3,17.5,32.3L17.5,32.3z M25.1,10.5c2.2,0,4,1.8,4,4
	s-1.8,3.8-4,3.8s-4-1.8-4-3.8S22.9,10.5,25.1,10.5L25.1,10.5z M25.1,21.2c2.2,0,4,1.8,4,4s-1.8,4-4,4s-4-1.8-4-4
	S22.9,21.2,25.1,21.2L25.1,21.2z M25.1,32c2.2,0,4,1.8,4,4s-1.8,4-4,4s-4-1.8-4-4S22.9,32,25.1,32L25.1,32z"/>
</svg>
