<?xml version="1.0" encoding="utf-8"?>
<!-- Generator: Adobe Illustrator 21.0.0, SVG Export Plug-In . SVG Version: 6.00 Build 0)  -->
<svg version="1.1" id="Capa_1" xmlns="http://www.w3.org/2000/svg" xmlns:xlink="http://www.w3.org/1999/xlink" x="0px" y="0px"
	 viewBox="0 0 50 50" style="enable-background:new 0 0 50 50;" xml:space="preserve">
<style type="text/css">
	.st0{fill:#B4BF2A;}
</style>
<g>
	<g>
		<path class="st0" d="M30.2,8v1.8c0,0.2,0.2,0.4,0.4,0.4h0.5V7.6h-0.5C30.4,7.6,30.2,7.8,30.2,8z"/>
		<path class="st0" d="M42.9,7.6h-0.5v2.6h0.5c0.2,0,0.4-0.2,0.4-0.4V8C43.3,7.8,43.1,7.6,42.9,7.6z"/>
		<path class="st0" d="M39.2,4.2h-5c-1.4,0-2.6,1.2-2.6,2.6v7.6c0,0.5,0.4,0.8,0.9,0.8V16v0.1c0,0.5,0.4,0.8,0.9,0.8h0.9l0,0
			c0.5,0,0.9-0.4,0.9-0.9v-0.9h3.4V16V16c0,0.5,0.4,0.8,0.8,0.8h0.9h0.1c0.5,0,0.8-0.4,0.8-0.9v-0.9H41c0.5,0,0.8-0.4,0.8-0.8V6.7
			l0,0C41.8,5.3,40.7,4.2,39.2,4.2z M35.4,5h2.7l0.4,0.9h-3.4L35.4,5z M34.3,14c0,0.2-0.2,0.4-0.4,0.4c0,0,0,0-0.1,0h-1
			c-0.2,0-0.4-0.1-0.4-0.3V14v-0.7c0-0.2,0.2-0.4,0.4-0.4h0.1l0,0h1c0.2,0,0.4,0.1,0.4,0.3v0.1V14z M32.5,11.9V6.7H41v5.1H32.5z
			 M41,13.3V14c0,0.2-0.2,0.4-0.3,0.4c0,0,0,0-0.1,0h-1.1c-0.2,0-0.4-0.2-0.4-0.4v-0.7c0-0.2,0.2-0.4,0.4-0.4l0,0h1.1
			C40.9,12.9,41,13.1,41,13.3L41,13.3z"/>
	</g>
	<path class="st0" d="M33.9,30.6c1.1-1.1,1.1-2.8,0.1-3.9c-0.1-0.1-1.9-1.9-2-2c-1.2-0.9-2.8-0.8-3.9,0.4l-9.6,9.6
		c-0.1,0.1-0.2,0.2-0.4,0.2c-2.5,1.9-6,1.6-8.2-0.6l-1.8-2c-2-2.2-2.1-5.5-0.4-7.8c0-0.1,0.1-0.2,0.2-0.4l9.8-9.8h-2.6
		c-0.9,0-1.8-0.7-1.8-1.8c0,0,0,0,0-0.1c0-0.9,0.8-1.8,1.8-1.8h6.8c0.9,0,1.8,0.8,1.8,1.8l0,0v6.8c0,0.9-0.8,1.8-1.8,1.8
		c-0.9,0-1.8-0.8-1.8-1.8v-2.6L11.1,26c-0.9,0.9-1.2,2.5-0.5,3.6c0,0.1,1.8,1.8,1.9,1.9c0.9,1.2,2.8,1.4,4,0.5
		c0.1-0.1,0.1-0.1,0.2-0.2l9.7-9.7c0.1-0.1,0.2-0.2,0.4-0.2c2.5-1.9,6-1.5,8.2,0.6c0.1,0.1,1.9,1.9,2,2c1.9,2.2,2,5.4,0.4,7.7
		c0,0.1-0.1,0.2-0.2,0.4L24.2,45.3c-0.7,0.7-1.8,0.7-2.5,0l0,0c-0.7-0.7-0.7-1.8,0-2.5L33.9,30.6z"/>
</g>
</svg>
