<?xml version="1.0" encoding="utf-8"?>
<!-- Generator: Adobe Illustrator 21.0.0, SVG Export Plug-In . SVG Version: 6.00 Build 0)  -->
<svg version="1.1" id="Capa_1" xmlns="http://www.w3.org/2000/svg" xmlns:xlink="http://www.w3.org/1999/xlink" x="0px" y="0px"
	 viewBox="0 0 50 50" style="enable-background:new 0 0 50 50;" xml:space="preserve">
<style type="text/css">
	.st0{fill:#2E2E2E;}
</style>
<g>
	<path class="st0" d="M3.3,17.4V18c0,0.6,0.5,1.2,1.2,1.2l0,0h1.2v3.8c0,1.1,0.3,1.9,0.9,2.7l5.1,6.6c-0.3,0.2-0.4,0.3-0.6,0.6H9.7
		c-0.6,0-1.2,0.5-1.2,1.2l0,0v0.6c0,0.6,0.4,1.2,1.2,1.2l0,0l0,0v0.1c0,2.4,2,4.2,4.2,4.2s4.2-2,4.2-4.2l0,0v-0.1h14.5v0.1
		c0,2.4,2,4.2,4.2,4.2c2.4,0,4.2-2,4.2-4.2l0,0v-0.1h4.5c0.6,0,1.2-0.5,1.2-1.2V34c0-0.6-0.5-1.1-1.1-1.2v-1c0-0.3,0-1.1-2.9-5.7
		c-1.3-2.3-2.5-4.4-2.7-4.5c-0.3-1.1-1.4-1.7-2.4-1.7h-6.2c-0.6,0-1.2,0.5-1.3,1v11.9h-1.5V19c0-0.4,0.4-0.9,0.9-0.9h6.3
		c1.1,0,2-0.6,2.4-1.5l0.6-1.1c0.5-0.6,0.2-1.3-0.3-1.7c-0.3-0.2-0.6-0.3-0.8-0.2h-8.3c-1.1,0-1.8,0.9-1.8,1.8l0,0
		c0,0.3-0.1,0.4-0.3,0.6c-0.1,0.2-0.4,0.3-0.6,0.3H4.4C3.9,16.3,3.4,16.8,3.3,17.4L3.3,17.4z M35.1,35.7c0-1,0.9-2.1,2.1-2.1
		c1.2,0,2.1,0.9,2.1,2.1c0,1.2-0.9,2.1-2.1,2.1C36,37.8,35.1,36.9,35.1,35.7L35.1,35.7z M33.1,23.7c0-1.7,0.4-1.7,1-1.7H37
		c0.9-0.1,1.7,0.3,2,1.2c0.4,1.1,2.1,3.8,2.3,3.9c0,0.1,0,0.3,0,0.4c-0.2,0.1-0.3,0.1-0.5,0.1H34c-0.6,0-0.9-0.4-0.9-0.9V23.7z
		 M19.9,28h3.8l-1.2-2.1l-1.3,0.1l0.8-1.2l0,0l0.9-1.6h3.2l-0.8,1.2l0.8,1.3c0.3,0.4,0.3,1.1,0,1.7l-1.3,2.4L24.4,30L24,30.6
		c-0.3,0.4-0.8,0.8-1.3,0.8h-2.7L19.9,28L19.9,28z M19,20.1l-1.4,2.1l0.8,1.1h-3.2l-1.7-2.9l1.2,0.2l0.9-1.4
		c0.3-0.5,0.9-0.8,1.3-0.8h3.7c0.6,0,1.1,0.3,1.4,0.8l0,0v0.2l0,0l1.3,2.3l-2.8,1.6L19.3,21l-0.1-0.3L19,20.1z M12,35.7
		c0-1,0.9-2.1,2.1-2.1s2,0.9,2,2.1c0,1.2-0.9,2.1-2,2.1S12,36.9,12,35.7L12,35.7z M12,25.8L12,25.8L12,25.8L12,25.8l1.3-2.4L16,25
		l-1.4,2.3v0.2l-0.4,0.8h2.4l0.6-1.2l0.6,1.2l0,0l0.9,1.6l-1.5,2.7l-0.6-1.2h-1.4c-0.6,0-1-0.3-1.3-0.8l-1.3-2.4l-0.4-0.8l0,0
		C11.8,26.8,11.8,26.2,12,25.8L12,25.8z"/>
	<path class="st0" d="M26.5,15.1H7.5c0,0,8-5.3,13.8-5.3S26.5,15.1,26.5,15.1z"/>
</g>
</svg>
