<?xml version="1.0" encoding="utf-8"?>
<!-- Generator: Adobe Illustrator 21.0.0, SVG Export Plug-In . SVG Version: 6.00 Build 0)  -->
<svg version="1.1" id="Capa_1" xmlns="http://www.w3.org/2000/svg" xmlns:xlink="http://www.w3.org/1999/xlink" x="0px" y="0px"
	 viewBox="0 0 50 50" style="enable-background:new 0 0 50 50;" xml:space="preserve">
<style type="text/css">
	.st0{fill:#B4BF2A;}
</style>
<g>
	<path class="st0" d="M16.7,22.7h7c0.8,0,1.2,0.6,1.2,1.2v3.6c0,0.8-0.6,1.2-1.2,1.2h-7c-0.8,0-1.2-0.6-1.2-1.2V24
		C15.4,23.2,16.1,22.7,16.7,22.7z"/>
	<path class="st0" d="M27.6,25.4h3.9c0.5,0,0.8,0.3,0.8,0.8v2c0,0.5-0.3,0.8-0.8,0.8h-3.9c-0.5,0-0.8-0.3-0.8-0.8v-2
		C27,25.7,27.3,25.4,27.6,25.4z"/>
	<path class="st0" d="M36.6,37.2v1.7h-1.1c-0.5,0-0.8,0.3-0.8,0.8c0,0.5,0.3,0.8,0.8,0.8h6.7c0.5,0,0.8-0.3,0.8-0.8
		c0-0.5-0.3-0.8-0.8-0.8h-0.8V15.9h2.3c0.5,0,0.8-0.3,0.8-0.8c0-0.2,0-0.2,0-0.3c-1.9-4.4-4.7-5.1-4.8-5.3h-0.2H10.3
		c-3.7,0-4.7,5.1-4.8,5.5c-0.2,0.5,0.2,0.8,0.6,0.9h0.2h2.5v23.1H7.8c-0.5,0-0.8,0.3-0.8,0.8c0,0.5,0.3,0.8,0.8,0.8h6.7
		c0.5,0,0.8-0.3,0.8-0.8c0-0.5-0.3-0.8-0.8-0.8h-0.9V20.7h23.2v16.5H36.6z M36.6,19.3H13.6v-3.4h23.2v3.4H36.6z"/>
</g>
</svg>
