<?xml version="1.0" encoding="utf-8"?>
<!-- Generator: Adobe Illustrator 21.0.0, SVG Export Plug-In . SVG Version: 6.00 Build 0)  -->
<svg version="1.1" id="Capa_1" xmlns="http://www.w3.org/2000/svg" xmlns:xlink="http://www.w3.org/1999/xlink" x="0px" y="0px"
	 viewBox="0 0 50 50" style="enable-background:new 0 0 50 50;" xml:space="preserve">
<style type="text/css">
	.st0{fill:#2E2E2E;}
</style>
<g>
	<path class="st0" d="M24.7,33.3L13.5,22.1c-1.2-1.2-3.1-1.2-4.3,0s-1.2,3.1,0,4.3l11.3,11.3c-0.7,3.1,1.3,6,4.3,6.7
		c3,0.7,6-1.3,6.7-4.3c0.7-3.1-1.3-6-4.3-6.7C26.4,33.1,25.6,33.1,24.7,33.3L24.7,33.3z M22.2,34.4l-4.4-4.2l-1.4,1.4l-6.2-6.2
		c-0.7-0.7-0.7-1.8,0-2.4c0.7-0.7,1.8-0.7,2.4,0l0,0l10.4,10.4L22.2,34.4z M29.2,41.9c-0.3,0.3-0.8,0.3-1.1,0
		c-0.3-0.3-0.3-0.8,0-1.1c0.3-0.3,0.8-0.3,1.1,0C29.6,41,29.6,41.6,29.2,41.9C29.2,41.8,29.2,41.8,29.2,41.9z M29.8,39.7
		c-0.1,0.1-0.3,0.2-0.5,0.2c-0.4,0-0.7-0.3-0.7-0.8c0.1-1.1-0.4-2.1-1.4-2.6c-0.3-0.2-0.4-0.7-0.2-1c0.2-0.3,0.5-0.4,0.9-0.2
		c1.4,0.8,2.3,2.4,2.2,4.1C30,39.4,29.9,39.5,29.8,39.7L29.8,39.7z"/>
	<path class="st0" d="M17.2,9.1c0.3-0.1,0.8-0.1,1.1-0.2c0.3,0,0.8,0,1.1,0c0.3,0,0.8,0.1,1.1,0.1c0.3,0.1,0.7,0.2,1,0.3
		c0.1,0.1,0.3,0.1,0.4,0.2l0.2,0.1l0.2,0.1c0.3,0.2,0.7,0.3,1.1,0.5c0.4,0.3,0.8,0.4,1.2,0.5s0.9,0.2,1.3,0.2c0.2,0,0.4,0,0.7,0
		s0.5-0.1,0.8-0.1c0.4-0.1,1-0.4,1.3-0.8c0.4-0.3,0.8-0.8,1-1.3c0.2-0.5,0.2-1.2,0-1.8s-0.5-1-1-1.3c-0.2-0.2-0.4-0.3-0.8-0.3h-0.2
		h-0.2h-0.2h-0.1c-0.1,0-0.2,0-0.4,0.1c-0.1,0-0.2,0.1-0.3,0.1c-0.2,0.1-0.4,0.3-0.5,0.4c-0.3,0.3-0.4,0.8-0.4,1.3
		c0,0,0.1,0.1,0.1,0l0,0l0,0c0.2-0.2,0.5-0.4,0.9-0.5c0.1,0,0.3-0.1,0.4-0.1H27c0.1,0,0.1,0,0.2,0c0.2,0.1,0.3,0.2,0.4,0.3
		c0.1,0.2,0.2,0.3,0.2,0.5s0,0.3,0,0.5c-0.1,0.2-0.2,0.3-0.3,0.5l-0.1,0.1h-0.3L27,8.9h-0.1h-0.1c-0.2,0.1-0.5,0.1-0.8,0.1
		c-0.3,0-0.7,0-1.1,0c-0.3-0.1-0.7-0.1-1-0.2c-0.3-0.1-0.7-0.2-1-0.3l-0.2-0.1l-0.3-0.1c-0.2-0.1-0.4-0.1-0.7-0.2
		c-0.8-0.2-1.6-0.2-2.5,0c-0.4,0.1-0.8,0.2-1.2,0.3c-0.2,0.1-0.3,0.1-0.5,0.2c-0.2,0.1-0.3,0.2-0.5,0.3c0,0,0,0,0,0.1l0,0L17.2,9.1z
		"/>
	<path class="st0" d="M14.5,13.6c1.2,0,2.3,0,3.5,0.2c1.1,0.1,2.1,0.4,3.2,0.9c1,0.3,1.9,0.9,2.6,1.5c0.2,0.1,0.3,0.3,0.5,0.5
		l0.7,0.7c0.4,0.4,1,0.9,1.5,1.2c0.5,0.4,1.2,0.8,1.9,1c0.3,0.1,0.8,0.2,1.1,0.3C30,20,30.3,20,30.8,20c0.9,0,1.8-0.3,2.5-0.9
		c0.7-0.5,1.2-1.2,1.4-2.1c0.1-0.3,0.2-0.8,0.2-1.2s0-0.8-0.1-1.2c-0.1-0.4-0.2-0.8-0.5-1.1c-0.2-0.3-0.5-0.7-0.9-0.9
		c-0.7-0.4-1.4-0.7-2.2-0.4c-0.2,0-0.3,0.1-0.5,0.2c-0.1,0.1-0.3,0.2-0.4,0.3c-0.2,0.2-0.4,0.5-0.5,0.8c0,0,0,0,0,0.1h0.1
		c0.4-0.3,1-0.4,1.4-0.3c0.2,0,0.4,0.1,0.5,0.3c0.2,0.1,0.3,0.2,0.4,0.4c0.4,0.7,0.3,1.5-0.1,2.1c-0.1,0.3-0.4,0.5-0.7,0.7
		c-0.2,0.1-0.5,0.2-0.9,0.1c-0.3,0-0.8-0.1-1.1-0.3c-0.4-0.2-0.9-0.4-1.2-0.7c-0.4-0.3-0.9-0.5-1.2-0.9l-0.7-0.5
		c-0.2-0.2-0.5-0.4-0.9-0.7c-1.1-0.8-2.4-1.3-3.7-1.5c-1.9-0.3-3.8-0.2-5.7,0.4c-0.5,0.2-1.2,0.4-1.6,0.8
		C14.4,13.4,14.4,13.4,14.5,13.6C14.4,13.6,14.4,13.6,14.5,13.6L14.5,13.6z"/>
	<path class="st0" d="M21.6,23.5c-0.2,0.2-0.4,0.4-0.7,0.7l0,0l0,0v0.1l0,0c0.3,0.1,0.8,0.2,1.1,0.1c0.3,0,0.8-0.1,1.1-0.2
		c0.4-0.2,0.8-0.4,1-0.8c0.3-0.4,0.4-0.9,0.5-1.3c0-0.4,0-0.9-0.1-1.3c-0.1-0.2-0.1-0.3-0.2-0.5c-0.1-0.1-0.1-0.3-0.2-0.5l-0.2-0.2
		l-0.1-0.2l-0.1-0.2l-0.2-0.2c-0.1-0.1-0.2-0.3-0.4-0.4L22.5,18c-0.1-0.1-0.3-0.2-0.4-0.3l-0.2-0.1l-0.3-0.2c-0.3-0.2-0.7-0.3-1-0.4
		c-0.3-0.1-0.7-0.2-1-0.2c-0.3-0.1-0.7-0.1-1-0.1c-0.7,0-1.3,0-2,0.1c-0.7,0.1-1.2,0.2-1.9,0.5c0,0,0,0,0,0.1c0,0,0,0.1,0.1,0.1l0,0
		c1.2,0.2,2.3,0.4,3.5,0.9c1,0.3,2,0.9,2.7,1.5l0.2,0.2c0.1,0.1,0.1,0.2,0.2,0.3c0.1,0.1,0.1,0.2,0.2,0.3l0.1,0.1l0.1,0.1
		c0.1,0.1,0.1,0.2,0.1,0.3l0.1,0.1c0,0,0,0.1,0.1,0.1c0.1,0.1,0.1,0.3,0.1,0.5c0,0.1,0,0.2,0,0.4c0,0.2-0.1,0.3-0.2,0.5
		C21.9,23,21.8,23.2,21.6,23.5z"/>
	<path class="st0" d="M27.9,24.9c0.3,0,0.5,0,0.9,0.1c0.2,0.1,0.5,0.2,0.8,0.3l0.5-1.5c-0.7-0.3-1.4-0.5-2.2-0.5
		c-0.7,0-1.2,0.1-1.8,0.4C25.6,24,25.3,24.4,25,25c-0.3,0.5-0.4,1.2-0.4,2c-0.1,1,0.2,1.9,0.9,2.6c0.7,0.7,1.5,1,2.4,0.9
		c0.7,0,1.3-0.1,2-0.4v-1.6c-0.3,0.1-0.5,0.2-0.9,0.3c-0.3,0.1-0.5,0.1-0.9,0.1c-1,0-1.5-0.7-1.5-2.1c0-0.5,0.1-1.1,0.4-1.5
		C27.2,25,27.5,24.9,27.9,24.9z"/>
	<path class="st0" d="M34.4,23.2c-1-0.1-1.9,0.2-2.5,0.9c-0.7,0.8-1,1.8-0.9,2.6c-0.1,1,0.2,2,0.9,2.7c0.7,0.7,1.6,1,2.5,0.9
		c1,0.1,1.9-0.2,2.5-0.9c0.7-0.8,1-1.8,0.9-2.7c0.1-1-0.2-2-0.9-2.7C36.3,23.6,35.3,23.2,34.4,23.2z M35.5,28.4
		c-0.2,0.3-0.7,0.5-1.1,0.5c-1,0-1.4-0.7-1.4-2.1c0-1.3,0.4-2.1,1.4-2.1c0.4,0,0.9,0.1,1.1,0.5c0.2,0.4,0.4,1,0.3,1.5
		C35.8,27.4,35.7,28,35.5,28.4L35.5,28.4z"/>
	<path class="st0" d="M40,30.3L40,30.3c0.4-0.4,0.8-0.8,1-0.9c0.1-0.1,0.2-0.3,0.3-0.4c0.2-0.2,0.2-0.5,0.2-0.9
		c0-0.2-0.1-0.4-0.2-0.7c-0.1-0.2-0.3-0.3-0.5-0.4s-0.5-0.1-0.8-0.1c-0.2,0-0.4,0-0.5,0.1c-0.2,0-0.3,0.1-0.5,0.2s-0.4,0.2-0.5,0.4
		l0.7,0.8c0.1-0.1,0.3-0.2,0.4-0.3c0.1-0.1,0.2-0.1,0.4-0.1c0.1,0,0.2,0,0.3,0.1c0.1,0.1,0.1,0.1,0.1,0.2s0,0.2,0,0.2
		c0,0.1-0.1,0.2-0.2,0.3c-0.1,0.1-0.3,0.3-0.5,0.7l-1.1,1.1v0.8h3.2v-1L40,30.3z"/>
</g>
</svg>
